<svg width="43" height="43" viewBox="0 0 43 43" fill="none" xmlns="http://www.w3.org/2000/svg">
<path d="M24.1875 13.4375H10.75V10.75H24.1875V13.4375ZM5.375 34.9375H19.6733L18.3296 37.625H2.6875V2.6875H32.25V16.125H29.5625V5.375H5.375V34.9375ZM10.75 26.875H23.7046L22.3608 29.5625H10.75V26.875ZM21.5 18.8125V21.5H10.75V18.8125H21.5ZM41.2153 39.1157C41.4113 39.5076 41.5093 39.9066 41.5093 40.3125C41.5093 40.6764 41.4393 41.0194 41.2993 41.3413C41.1593 41.6632 40.9704 41.9502 40.7324 42.2021C40.4945 42.4541 40.2075 42.6501 39.8716 42.79C39.5356 42.93 39.1857 43 38.8218 43H22.9907C22.6268 43 22.2839 42.93 21.9619 42.79C21.64 42.6501 21.353 42.4611 21.1011 42.2231C20.8491 41.9852 20.6532 41.6982 20.5132 41.3623C20.3732 41.0264 20.3032 40.6764 20.3032 40.3125C20.3032 39.9066 20.4012 39.5076 20.5972 39.1157L26.875 26.5601V21.5H24.1875V18.8125H37.625V21.5H34.9375V26.5601L41.2153 39.1157ZM36.1343 34.9375L32.25 27.1899V21.5H29.5625V27.1899L25.6782 34.9375H36.1343Z" fill="white"/>
</svg>
